<svg width="482" height="519" fill="none" xmlns="http://www.w3.org/2000/svg"><path d="m340.294 348.828 66.115-40.133V40.085l-67.324 38.92 1.209 269.823Z" fill="#4F62F6"/><path d="m340.212 348.69-67.324-38.92V39.94l67.324 38.92v269.83Z" fill="#342CA3"/><path d="m274.253 39.939 66.256 39 66.258-39-66.258-39-66.256 39Z" fill="#598FF8"/><path d="m248.25 400.268 67.326-38.92V38.919L248.25 77.84v322.429Z" fill="#D6D2CD"/><path d="m248.45 400.729-67.326-38.918V38.984l67.326 38.92V400.73Z" fill="#C1BDB9"/><path d="m180.99 38.92 67.257 38.92 67.324-38.92L248.247 0 180.99 38.92Z" fill="#E7E5E3"/><path d="m157.218 454.125 67.257-40.633V39.257l-67.257 38.92v375.948Z" fill="#313238"/><path d="m89.896 39.258 67.326 38.92 67.256-38.92L157.222.337l-67.326 38.92Z" fill="#515258"/><path d="m157.222 454.258-67.326-38.92V39.258l67.326 38.919v376.081Z" fill="#17181A"/><path d="m67.328 502.483 67.326-38.92V245.338l-67.326 38.92v218.225Z" fill="#4F62F6"/><path d="m0 245.338 67.325 38.92 67.326-38.92-67.326-38.92L0 245.338Z" fill="#598FF8"/><path d="M67.325 500.638 0 461.718v-216.38l67.325 38.92v216.38Z" fill="#342CA3"/><path d="m93.503 448.648-52.33 26.514 23.991 11.761 53.899-27.837 100.573-150.614 86.126-5.467 100.574-165.527 69.491-24.428-56.464-17.664v11.776l-51.367 25.345-82.793 153.596h-94.46l-97.24 162.545Z" fill="#84D6D7"/><path d="m440.477 156.065 3.334-13.918 2.778-11.433-27.226 18.889 21.114 6.462Z" fill="#35999A"/><path fill-rule="evenodd" clip-rule="evenodd" d="m401.113 169.081 56.041-33.113-14.079-26.53-68.987 32.757-81.928 155.263h-90.265L100.38 460.718 49.558 485.9l13.312 28.608 63.368-28.608 95.896-151.963h91.989l86.99-164.856Z" fill="#56ADAE"/><path d="M440.387 155.639v-53.188l40.008 9.942-40.008 43.246Z" fill="#56ADAE"/><path d="m63.269 485.172-21.51-10.01v28.262l21.51 10.602v-28.854Z" fill="#35999A"/></svg>